<?xml version="1.0" encoding="utf-8"?>
<!-- Generator: Adobe Illustrator 16.0.0, SVG Export Plug-In . SVG Version: 6.00 Build 0)  -->
<!DOCTYPE svg PUBLIC "-//W3C//DTD SVG 1.1//EN" "http://www.w3.org/Graphics/SVG/1.1/DTD/svg11.dtd">
<svg version="1.1" id="Layer_1" xmlns="http://www.w3.org/2000/svg" xmlns:xlink="http://www.w3.org/1999/xlink" x="0px" y="0px"
	 width="250px" height="250px" viewBox="0 0 250 250" style="enable-background:new 0 0 250 250;" xml:space="preserve">
<style type="text/css">
<![CDATA[
	.st0{fill:#7A2C7D;}
	.st1{fill:#B3D334;}
	.st2{fill:#EC008C;}
	.st3{fill:#F37021;}
	.st4{fill:#FFDD00;}
	.st5{fill:#0072BC;}
	.st6{fill:#022169;}
]]>
</style>
<g>
	<g>
		<g>
			<path class="st1" d="M163,128.7c-0.2,11.8-9.9,21.2-21.6,21c-11.8-0.2-21.2-9.9-21-21.6c0.2-11.8,9.9-21.2,21.6-21
				C153.7,107.2,163.2,116.9,163,128.7z"/>
			<path class="st2" d="M164.5,26.3c-0.2,11.8-9.9,21.2-21.6,21c-11.8-0.2-21.2-9.9-21-21.6c0.2-11.8,9.9-21.2,21.6-21
				C155.3,4.8,164.7,14.5,164.5,26.3z"/>
		</g>
		<g>
			<path class="st0" d="M197.3,85.1c10.1,6,13.4,19.1,7.4,29.2c-6,10.1-19.1,13.4-29.2,7.4c-10.1-6-13.4-19.1-7.4-29.2
				C174.1,82.4,187.2,79.1,197.3,85.1z"/>
			<path class="st4" d="M109.4,32.6c10.1,6,13.4,19.1,7.4,29.2c-6,10.1-19.1,13.4-29.2,7.4c-10.1-6-13.4-19.1-7.4-29.2
				C86.2,29.9,99.3,26.6,109.4,32.6z"/>
		</g>
		<g>
			<path class="st3" d="M176.7,33.6c10.3-5.7,23.3-2,29,8.2c5.7,10.3,2,23.3-8.2,29c-10.3,5.7-23.3,2.1-29-8.2
				C162.8,52.3,166.4,39.3,176.7,33.6z"/>
			<path class="st5" d="M87.3,83.5c10.3-5.7,23.3-2,29,8.2c5.7,10.3,2,23.3-8.2,29c-10.3,5.7-23.3,2-29-8.2
				C73.4,102.2,77,89.2,87.3,83.5z"/>
		</g>
	</g>
	<g>
		<path class="st6" d="M14.3,237.7l2.4,0.4c-0.4,1.8-1.1,3.1-2.2,4c-1,0.9-2.3,1.4-3.9,1.4c-1.9,0-3.5-0.7-4.7-2.2
			c-1.2-1.5-1.8-3.6-1.8-6.3c0-2.9,0.6-5.1,1.8-6.6c1.2-1.5,2.7-2.3,4.6-2.3c1.8,0,3.2,0.7,4.4,2.2c1.2,1.5,1.8,3.6,1.8,6.4l0,0.8
			H6.6c0.1,1.9,0.5,3.3,1.3,4.2c0.8,0.9,1.7,1.4,2.8,1.4C12.4,241.1,13.6,239.9,14.3,237.7 M6.7,233.1h7.6c-0.1-1.4-0.4-2.5-0.9-3.2
			c-0.7-1-1.7-1.5-2.8-1.5c-1,0-1.9,0.4-2.6,1.3C7.2,230.5,6.8,231.6,6.7,233.1"/>
		<path class="st6" d="M21.2,243v-16.6h2.1v2.3c0.5-0.9,1.1-1.6,1.8-2c0.7-0.4,1.6-0.7,2.5-0.7c0.7,0,1.4,0.1,2,0.4
			c0.6,0.3,1.1,0.7,1.5,1.1c0.4,0.5,0.7,1.1,0.9,1.8c0.2,0.7,0.3,1.9,0.3,3.4V243H30v-10.1c0-1.2-0.1-2.1-0.3-2.7
			c-0.2-0.6-0.5-1-1-1.3c-0.4-0.3-1-0.5-1.5-0.5c-1.1,0-2,0.4-2.6,1.2c-0.7,0.8-1,2.2-1,4.2v9.1H21.2z"/>
		<path class="st6" d="M41.2,243l-5.2-16.6h2.4l2.9,9.9c0.3,1.1,0.6,2.2,0.9,3.3c0.2-0.9,0.5-1.9,0.8-3.2l3-10.1h2.4L43.4,243H41.2z
			"/>
		<path class="st6" d="M61,241c-0.8,0.8-1.6,1.4-2.4,1.8c-0.8,0.4-1.7,0.6-2.6,0.6c-1.4,0-2.6-0.4-3.4-1.3c-0.8-0.9-1.3-2-1.3-3.5
			c0-1,0.2-1.8,0.6-2.6c0.4-0.7,0.9-1.3,1.6-1.7c0.7-0.4,1.7-0.7,3.1-0.9c1.9-0.3,3.3-0.6,4.1-1l0-0.7c0-1.1-0.2-1.9-0.6-2.4
			c-0.6-0.7-1.5-1-2.6-1c-1.1,0-1.9,0.2-2.4,0.7c-0.5,0.4-0.9,1.3-1.2,2.5l-2.3-0.4c0.3-1.8,1-3.1,2-3.9c1-0.8,2.4-1.2,4.2-1.2
			c1.4,0,2.6,0.3,3.4,0.8c0.8,0.5,1.3,1.2,1.5,2c0.2,0.8,0.3,1.9,0.3,3.5v3.8c0,2.6,0,4.3,0.1,5c0.1,0.7,0.3,1.3,0.6,2h-2.4
			C61.3,242.4,61.1,241.7,61,241 M60.9,234.7c-0.8,0.4-2.1,0.8-3.8,1.1c-1,0.2-1.6,0.4-2,0.6c-0.4,0.2-0.7,0.5-0.9,0.9
			c-0.2,0.4-0.3,0.8-0.3,1.4c0,0.8,0.2,1.4,0.7,1.9c0.5,0.5,1.2,0.7,2,0.7c0.8,0,1.6-0.2,2.2-0.6c0.7-0.4,1.2-1,1.5-1.7
			c0.3-0.7,0.5-1.8,0.5-3.1V234.7z"/>
		<path class="st6" d="M67.5,238l2.3-0.4c0.1,1.2,0.5,2,1.1,2.6c0.6,0.6,1.4,0.9,2.4,0.9c1,0,1.8-0.2,2.3-0.7
			c0.5-0.5,0.8-1.1,0.8-1.9c0-0.7-0.2-1.2-0.7-1.5c-0.3-0.2-1.1-0.6-2.3-0.9c-1.8-0.6-3-1-3.6-1.4c-0.6-0.4-1.1-0.9-1.4-1.5
			c-0.3-0.6-0.5-1.4-0.5-2.2c0-1.4,0.5-2.6,1.4-3.5c0.9-0.9,2.2-1.3,3.8-1.3c1,0,1.9,0.2,2.7,0.5c0.8,0.4,1.4,0.9,1.8,1.5
			c0.4,0.6,0.7,1.5,0.8,2.6L76,231c-0.2-1.8-1.2-2.7-3-2.7c-1,0-1.7,0.2-2.2,0.6c-0.5,0.4-0.7,0.9-0.7,1.5c0,0.6,0.2,1.1,0.7,1.4
			c0.3,0.2,1.1,0.5,2.5,1c1.9,0.6,3.1,1.1,3.7,1.4c0.6,0.4,1,0.9,1.3,1.5c0.3,0.6,0.5,1.4,0.5,2.2c0,1.6-0.5,2.9-1.5,3.9
			c-1,1-2.4,1.5-4.1,1.5C69.9,243.4,68,241.6,67.5,238"/>
		<path class="st6" d="M92.4,237.7l2.4,0.4c-0.4,1.8-1.1,3.1-2.1,4c-1,0.9-2.3,1.4-3.9,1.4c-1.9,0-3.5-0.7-4.7-2.2
			c-1.2-1.5-1.8-3.6-1.8-6.3c0-2.9,0.6-5.1,1.8-6.6c1.2-1.5,2.7-2.3,4.6-2.3c1.8,0,3.2,0.7,4.4,2.2c1.2,1.5,1.8,3.6,1.8,6.4l0,0.8
			H84.7c0.1,1.9,0.5,3.3,1.3,4.2c0.8,0.9,1.7,1.4,2.8,1.4C90.6,241.1,91.8,239.9,92.4,237.7 M84.9,233.1h7.6
			c-0.1-1.4-0.4-2.5-0.9-3.2c-0.7-1-1.7-1.5-2.8-1.5c-1,0-1.9,0.4-2.6,1.3C85.3,230.5,84.9,231.6,84.9,233.1"/>
		<path class="st6" d="M98.5,238l2.3-0.4c0.1,1.2,0.5,2,1.1,2.6c0.6,0.6,1.4,0.9,2.4,0.9c1,0,1.8-0.2,2.3-0.7
			c0.5-0.5,0.8-1.1,0.8-1.9c0-0.7-0.2-1.2-0.7-1.5c-0.3-0.2-1.1-0.6-2.3-0.9c-1.8-0.6-3-1-3.6-1.4c-0.6-0.4-1.1-0.9-1.4-1.5
			c-0.3-0.6-0.5-1.4-0.5-2.2c0-1.4,0.5-2.6,1.4-3.5c0.9-0.9,2.2-1.3,3.8-1.3c1,0,1.9,0.2,2.7,0.5c0.8,0.4,1.4,0.9,1.8,1.5
			c0.4,0.6,0.7,1.5,0.8,2.6L107,231c-0.2-1.8-1.2-2.7-3-2.7c-1,0-1.7,0.2-2.2,0.6c-0.5,0.4-0.7,0.9-0.7,1.5c0,0.6,0.2,1.1,0.7,1.4
			c0.3,0.2,1.1,0.5,2.5,1c1.9,0.6,3.1,1.1,3.7,1.4c0.6,0.4,1,0.9,1.3,1.5s0.5,1.4,0.5,2.2c0,1.6-0.5,2.9-1.5,3.9
			c-1,1-2.4,1.5-4.1,1.5C100.9,243.4,99,241.6,98.5,238"/>
	</g>
	<g>
		<path class="st6" d="M144.2,243v-13.9h-2V227h2v-1.7c0-1.3,0.1-2.2,0.4-2.8c0.3-0.6,0.7-1.1,1.2-1.4c0.5-0.3,1.2-0.5,2-0.5
			c0.6,0,1.3,0.1,2.1,0.3l-0.3,2.3c-0.5-0.1-0.9-0.1-1.3-0.1c-0.7,0-1.1,0.2-1.4,0.5c-0.3,0.3-0.4,1-0.4,2v1.5h2.6v2.1h-2.6V243
			H144.2z"/>
		<rect x="152.1" y="221" class="st6" width="2.2" height="22.1"/>
		<path class="st6" d="M168.2,237.9l2.3,0.3c-0.4,1.7-1.1,3-2.1,3.9c-1,0.9-2.2,1.3-3.7,1.3c-1.9,0-3.4-0.7-4.5-2.1
			c-1.1-1.4-1.7-3.4-1.7-6.1c0-2.8,0.6-4.9,1.7-6.3c1.2-1.5,2.6-2.2,4.4-2.2c1.7,0,3.1,0.7,4.2,2.1c1.1,1.4,1.7,3.5,1.7,6.2l0,0.7
			h-9.8c0.1,1.8,0.5,3.1,1.2,4.1c0.7,0.9,1.6,1.4,2.7,1.4C166.4,241.1,167.6,240.1,168.2,237.9 M160.9,233.5h7.3
			c-0.1-1.4-0.4-2.4-0.9-3.1c-0.7-1-1.6-1.5-2.7-1.5c-1,0-1.8,0.4-2.5,1.2C161.4,231,161,232.1,160.9,233.5"/>
		<path class="st6" d="M173.4,243l4.8-8.3l-4.4-7.7h2.8l2,3.7c0.4,0.7,0.7,1.3,0.9,1.8c0.4-0.7,0.7-1.2,1-1.7l2.2-3.8h2.6l-4.5,7.5
			l4.9,8.5H183l-2.7-5l-0.7-1.3l-3.5,6.3H173.4z"/>
		<path class="st6" d="M189.1,221h2.2v3.1h-2.2V221z M189.1,227h2.2v16h-2.2V227z"/>
		<path class="st6" d="M198.2,243h-2.1v-22h2.2v7.9c0.5-0.7,1-1.3,1.6-1.6c0.6-0.4,1.3-0.5,2-0.5c1,0,2,0.3,2.8,0.9
			c0.8,0.6,1.5,1.5,2,2.8c0.5,1.2,0.8,2.8,0.8,4.5c0,2.7-0.6,4.8-1.7,6.3c-1.1,1.5-2.5,2.2-4,2.2c-0.8,0-1.4-0.2-2.1-0.6
			c-0.6-0.4-1.1-1-1.6-1.8V243z M198.2,234.9c0,1.7,0.2,2.9,0.5,3.7c0.3,0.8,0.7,1.4,1.3,1.9c0.6,0.4,1.2,0.6,1.8,0.6
			c0.9,0,1.7-0.5,2.4-1.5c0.7-1,1.1-2.6,1.1-4.6c0-2.1-0.3-3.6-1-4.6c-0.7-1-1.5-1.5-2.5-1.5c-0.9,0-1.7,0.5-2.5,1.5
			C198.6,231.5,198.2,233,198.2,234.9"/>
		<rect x="211.7" y="221" class="st6" width="2.2" height="22.1"/>
		<path class="st6" d="M227.9,237.9l2.3,0.3c-0.4,1.7-1.1,3-2.1,3.9c-1,0.9-2.2,1.3-3.7,1.3c-1.9,0-3.4-0.7-4.5-2.1
			c-1.2-1.4-1.7-3.4-1.7-6.1c0-2.8,0.6-4.9,1.7-6.3c1.2-1.5,2.6-2.2,4.4-2.2c1.7,0,3.1,0.7,4.2,2.1c1.1,1.4,1.7,3.5,1.7,6.2l0,0.7
			h-9.8c0.1,1.8,0.5,3.1,1.2,4.1c0.7,0.9,1.6,1.4,2.7,1.4C226.1,241.1,227.2,240.1,227.9,237.9 M220.6,233.5h7.3
			c-0.1-1.4-0.4-2.4-0.9-3.1c-0.7-1-1.6-1.5-2.7-1.5c-1,0-1.8,0.4-2.5,1.2C221.1,231,220.7,232.1,220.6,233.5"/>
		<path class="st6" d="M233.7,238.2l2.2-0.4c0.1,1.1,0.5,2,1.1,2.5c0.6,0.6,1.4,0.8,2.3,0.8c1,0,1.7-0.2,2.2-0.7
			c0.5-0.5,0.8-1.1,0.8-1.8c0-0.6-0.2-1.1-0.7-1.5c-0.3-0.2-1.1-0.5-2.3-0.9c-1.7-0.5-2.9-1-3.5-1.4c-0.6-0.4-1-0.9-1.4-1.5
			c-0.3-0.6-0.5-1.3-0.5-2.1c0-1.4,0.4-2.5,1.3-3.3c0.9-0.9,2.1-1.3,3.6-1.3c1,0,1.8,0.2,2.6,0.5c0.7,0.4,1.3,0.8,1.7,1.4
			c0.4,0.6,0.7,1.4,0.8,2.5l-2.2,0.4c-0.2-1.7-1.1-2.6-2.8-2.6c-1,0-1.7,0.2-2.2,0.6c-0.5,0.4-0.7,0.9-0.7,1.5
			c0,0.6,0.2,1.1,0.7,1.4c0.3,0.2,1.1,0.5,2.4,1c1.8,0.6,3,1,3.6,1.4c0.5,0.3,1,0.8,1.3,1.4c0.3,0.6,0.5,1.3,0.5,2.1
			c0,1.5-0.5,2.8-1.5,3.7c-1,0.9-2.3,1.4-4,1.4C236,243.4,234.2,241.7,233.7,238.2"/>
	</g>
	<path class="st6" d="M12.7,206.3c0,1.4-1,2.6-2.4,2.9c-0.2,0-0.3,0-0.5,0c-0.2,0-0.3,0-0.5,0c-1.4-0.2-2.4-1.4-2.4-2.9
		c0-0.6,0.2-1.1,0.5-1.6c0,0,0.1-0.1,0.1-0.1c0.5-0.7,1.4-1.2,2.3-1.2C11.4,203.4,12.7,204.7,12.7,206.3z"/>
	<path class="st6" d="M122.6,238.8c0,0.6-0.2,1.2-0.5,1.6c-0.5,0.8-1.4,1.3-2.4,1.3c-1.6,0-2.9-1.3-2.9-2.9c0-1.6,1.3-2.9,2.9-2.9
		C121.3,235.9,122.6,237.2,122.6,238.8z"/>
	<g>
		<path class="st6" d="M239.3,206.3c0,0.6-0.2,1.2-0.5,1.6c-0.5,0.8-1.4,1.3-2.4,1.3c-1.6,0-2.9-1.3-2.9-2.9c0-1.6,1.3-2.9,2.9-2.9
			C238,203.3,239.3,204.6,239.3,206.3z"/>
		<path class="st6" d="M245.2,206.3c0,0.6-0.2,1.2-0.5,1.6c-0.5,0.8-1.4,1.3-2.4,1.3c-1.6,0-2.9-1.3-2.9-2.9c0-1.6,1.3-2.9,2.9-2.9
			C243.9,203.3,245.2,204.6,245.2,206.3z"/>
	</g>
	<path class="st6" d="M99.5,196.8c0,0.6-0.2,1.2-0.5,1.6c-0.5,0.8-1.4,1.3-2.4,1.3c-1.6,0-2.9-1.3-2.9-2.9c0-0.9,0.4-1.7,1-2.2
		c0.1-0.1,0.3-0.2,0.4-0.3c0.4-0.3,1-0.4,1.5-0.4c0.6,0,1.2,0.2,1.6,0.5c0,0,0.1,0,0.1,0.1l0.6,0.6
		C99.3,195.6,99.5,196.2,99.5,196.8z"/>
	<path class="st6" d="M103.8,201.1c0,0.6-0.2,1.2-0.5,1.6c0,0.1-0.1,0.1-0.2,0.2c-0.3,0.3-0.6,0.6-1,0.8h0c-0.4,0.2-0.8,0.3-1.3,0.3
		c-1.6,0-2.9-1.3-2.9-2.9c0-1.6,1.3-2.9,2.9-2.9c0.7,0,1.4,0.3,1.9,0.7c0.1,0.1,0.3,0.2,0.4,0.4
		C103.5,199.7,103.8,200.4,103.8,201.1z"/>
	<g>
		<path class="st6" d="M84.5,197.5v11.7H9.3c-1.4-0.2-2.4-1.4-2.4-2.9c0-0.6,0.2-1.1,0.5-1.6c0,0,0.1-0.1,0.1-0.1l45.2-64.1H13.9
			c-1.4-0.2-2.5-1.4-2.5-2.9v-5.9c0-1.6,1.3-2.9,2.9-2.9h56.1c1.6,0,2.9,1.3,2.9,2.9c0,0.6-0.2,1.2-0.5,1.6l-45.2,64.1H84.5z"/>
		<path class="st6" d="M105,162.6c-5.3-5.3-11.7-8-19.3-8c-7.5,0-14,2.7-19.3,8c-5.3,5.3-8,11.7-8,19.3c0,7.5,2.7,14,8,19.3
			c5.3,5.3,11.7,8,19.3,8c6.2,0,11.7-1.8,16.4-5.5h0c0.3-0.2,0.7-0.5,1-0.8c0-0.1,0.1-0.1,0.2-0.2c0.3-0.5,0.5-1,0.5-1.6
			c0-0.7-0.3-1.3-0.7-1.8l-0.4-0.4l-3.8-3.8l-0.6-0.6c0,0-0.1,0-0.1-0.1c-0.5-0.3-1-0.5-1.6-0.5c-0.6,0-1.1,0.2-1.5,0.4
			c-0.1,0.1-0.3,0.2-0.4,0.3c-2.6,1.9-5.6,2.8-9,2.8c-4.3,0-8-1.5-11-4.5c-2.1-2.1-3.4-4.4-4.1-7.1h39.6c0.9,0,1.7-0.5,2.2-1.3
			c0.2-0.3,0.3-0.6,0.4-0.9c0-0.3,0-0.7,0.1-1c0-0.2,0-0.5,0-0.7C112.9,174.4,110.3,167.9,105,162.6z M72.2,174.1
			c0.7-1.1,1.5-2.2,2.5-3.2c3-3,6.7-4.6,11-4.6c4.3,0,8,1.5,11,4.6c1,1,1.8,2.1,2.5,3.2H72.2z"/>
		<path class="st6" d="M155,192.9c-3,3-6.7,4.5-11,4.5c-4.3,0-8-1.5-11-4.5c-3-3-4.6-6.7-4.6-11c0-4.3,1.5-8,4.6-11
			c3-3,6.7-4.6,11-4.6c4.3,0,8,1.5,11,4.6c3,3,4.6,6.7,4.6,11C159.6,186.2,158.1,189.9,155,192.9z M163.3,162.6
			c-5.3-5.3-11.7-8-19.3-8c-7.5,0-14,2.7-19.3,8c-5.3,5.3-8,11.7-8,19.3v56.9c0,1.6,1.3,2.9,2.9,2.9h5.9c1,0,1.9-0.5,2.4-1.3
			c0.2-0.3,0.4-0.7,0.5-1.2v-34.9c4.5,3.2,9.7,4.8,15.6,4.8c7.5,0,14-2.7,19.3-8c5.3-5.3,8-11.7,8-19.3
			C171.3,174.4,168.6,167.9,163.3,162.6z"/>
		<path class="st6" d="M202.7,209.2c-7.5,0-14-2.7-19.3-8c-5.3-5.3-8-11.7-8-19.3c0-7.5,2.7-14,8-19.3c5.3-5.3,11.7-8,19.3-8
			c7.5,0,14,2.7,19.3,8c5.3,5.3,8,11.7,8,19.3c0,7.5-2.7,14-8,19.3C216.6,206.5,210.2,209.2,202.7,209.2 M213.7,192.9
			c3-3,4.6-6.7,4.6-11s-1.5-8-4.6-11c-3-3-6.7-4.6-11-4.6c-4.3,0-8,1.5-11,4.6c-3,3-4.6,6.7-4.6,11s1.5,8,4.6,11c3,3,6.7,4.6,11,4.6
			C207,197.5,210.6,196,213.7,192.9"/>
		<path class="st6" d="M245.2,142v64.2c0,0.6-0.2,1.2-0.5,1.6c-0.5,0.8-1.4,1.3-2.4,1.3h-5.8c-1.6,0-2.9-1.3-2.9-2.9V142
			c0-1.6,1.3-2.9,2.9-2.9h5.8C243.9,139.1,245.2,140.4,245.2,142z"/>
		<path class="st6" d="M112.9,182.9c0,0.2,0,0.5-0.1,0.7c-0.1,0.3-0.2,0.7-0.4,0.9c-0.5,0.7-1.3,1.2-2.2,1.3c-0.1,0-0.1,0-0.2,0
			c-0.1,0-0.2,0-0.3,0c-1.5-0.2-2.6-1.4-2.6-2.9c0-0.9,0.4-1.7,1-2.2c0.1-0.1,0.3-0.2,0.4-0.3c0.4-0.3,1-0.4,1.5-0.4
			c0.6,0,1.2,0.2,1.6,0.5c0,0,0.1,0,0.1,0.1l0.6,0.6c0.3,0.4,0.5,0.9,0.5,1.5C112.9,182.7,112.9,182.8,112.9,182.9z"/>
	</g>
</g>
</svg>
